<?xml version="1.0"?>
<svg xmlns="http://www.w3.org/2000/svg" viewBox="0 0 64 64" width="512" height="512"><g id="calculator_&#xB7;_finance_&#xB7;_business_&#xB7;_calculation_&#xB7;_money" data-name="calculator &#xB7; finance &#xB7; business &#xB7; calculation &#xB7; money"><circle cx="29" cy="17" r="2"/><circle cx="34" cy="17" r="2"/><path d="M35.949,14.316l2-6A1,1,0,0,0,37,7H28.133l-.141-1.124A1,1,0,0,0,27,5H25a1,1,0,0,0,0,2h1.117l.139,1.111,0,.029.748,5.984A1,1,0,0,0,28,15h7A1,1,0,0,0,35.949,14.316ZM28.883,13l-.5-4h7.23l-1.334,4Z"/><path d="M40,45H38a1,1,0,0,1-1-1,1,1,0,0,0-2,0,3,3,0,0,0,2.988,3l-.013.988A1,1,0,0,0,38.962,49h.014a1,1,0,0,0,1-.987L39.989,47H40a3,3,0,0,0,0-6H38a1,1,0,0,1,0-2h2a1,1,0,0,1,1,1,1,1,0,0,0,2,0,3,3,0,0,0-3-3V36a1,1,0,0,0-2,0v1a3,3,0,0,0,0,6h2a1,1,0,0,1,0,2Z"/><path d="M57,2H21.07a1.007,1.007,0,0,0-.71.29L10.29,12.32a1.033,1.033,0,0,0-.29.71V20H7a5,5,0,0,0-5,5V57a5,5,0,0,0,5,5H27a5.017,5.017,0,0,0,4.9-4H52a1,1,0,0,0,0-2H32V49.11a10,10,0,1,0,0-14.22V25a5,5,0,0,0-5-5H12V14h8a2.006,2.006,0,0,0,2-2V4H56V9a1,1,0,0,0,2,0V3A1,1,0,0,0,57,2ZM32,38.16a8,8,0,1,1,0,7.68ZM27,22a3.009,3.009,0,0,1,3,3V57a3.009,3.009,0,0,1-3,3H7a3.009,3.009,0,0,1-3-3V25a3.009,3.009,0,0,1,3-3ZM20,12H13.45L20,5.48Z"/><path d="M50,7H41a1,1,0,0,0,0,2h9a1,1,0,0,0,0-2Z"/><path d="M51,12a1,1,0,0,0-1-1H41a1,1,0,0,0,0,2h9A1,1,0,0,0,51,12Z"/><path d="M49,15H39a1,1,0,0,0,0,2H49a1,1,0,0,0,0-2Z"/><path d="M50,20a1,1,0,0,0-1-1H39a1,1,0,0,0,0,2H49A1,1,0,0,0,50,20Z"/><path d="M46,23H35a1,1,0,0,0,0,2H46a1,1,0,0,0,0-2Z"/><path d="M46,27H35a1,1,0,0,0,0,2H46a1,1,0,0,0,0-2Z"/><path d="M57,12a5,5,0,0,0-5,5v5a3.009,3.009,0,0,0-3,3v8a1,1,0,0,0,2,0V25a1,1,0,0,1,1-1V49a1,1,0,0,0,1,1v3a1,1,0,0,0,1,1h.22l1.81,7.24a1,1,0,0,0,1.94,0L59.78,54H60a1,1,0,0,0,1-1V50a1,1,0,0,0,1-1V17A5,5,0,0,0,57,12Zm0,44.88L56.28,54h1.44ZM59,52H55V50h4Zm1-4H54V24h6Zm0-26H54V20h6Zm0-4H54V17a3,3,0,0,1,6,0Z"/><path d="M27,24H7a1,1,0,0,0-1,1v8a1,1,0,0,0,1,1H27a1,1,0,0,0,1-1V25A1,1,0,0,0,27,24Zm-1,8H8V26H26Z"/><path d="M11,36H7a1,1,0,0,0-1,1v4a1,1,0,0,0,1,1h4a1,1,0,0,0,1-1V37A1,1,0,0,0,11,36Zm-1,4H8V38h2Z"/><path d="M11,44H7a1,1,0,0,0-1,1v4a1,1,0,0,0,1,1h4a1,1,0,0,0,1-1V45A1,1,0,0,0,11,44Zm-1,4H8V46h2Z"/><path d="M11,52H7a1,1,0,0,0-1,1v4a1,1,0,0,0,1,1h4a1,1,0,0,0,1-1V53A1,1,0,0,0,11,52Zm-1,4H8V54h2Z"/><path d="M19,36H15a1,1,0,0,0-1,1v4a1,1,0,0,0,1,1h4a1,1,0,0,0,1-1V37A1,1,0,0,0,19,36Zm-1,4H16V38h2Z"/><path d="M19,44H15a1,1,0,0,0-1,1v4a1,1,0,0,0,1,1h4a1,1,0,0,0,1-1V45A1,1,0,0,0,19,44Zm-1,4H16V46h2Z"/><path d="M19,52H15a1,1,0,0,0-1,1v4a1,1,0,0,0,1,1h4a1,1,0,0,0,1-1V53A1,1,0,0,0,19,52Zm-1,4H16V54h2Z"/><path d="M27,36H23a1,1,0,0,0-1,1v4a1,1,0,0,0,1,1h4a1,1,0,0,0,1-1V37A1,1,0,0,0,27,36Zm-1,4H24V38h2Z"/><path d="M27,44H23a1,1,0,0,0-1,1v4a1,1,0,0,0,1,1h4a1,1,0,0,0,1-1V45A1,1,0,0,0,27,44Zm-1,4H24V46h2Z"/><path d="M27,52H23a1,1,0,0,0-1,1v4a1,1,0,0,0,1,1h4a1,1,0,0,0,1-1V53A1,1,0,0,0,27,52Zm-1,4H24V54h2Z"/></g></svg>
