<svg id="Capa_1" enable-background="new 0 0 496.778 496.778" height="512" viewBox="0 0 496.778 496.778" width="512" xmlns="http://www.w3.org/2000/svg"><g><g id="XMLID_170_"><g><path d="m400.389 416.778c11.6 0 21 9.4 21 21s-9.4 21-21 21h-304c-11.6 0-21-9.4-21-21s9.4-21 21-21h109 151z" fill="#e88a4b"/></g></g><path d="m377.561 436.278h-196-64c-5.8 0-11.05-2.35-14.85-6.15-3.468-3.468-5.706-8.15-6.074-13.35h-.247c-11.6 0-21 9.4-21 21s9.4 21 21 21h304c11.6 0 21-9.4 21-21 0-.506-.041-1.002-.076-1.5z" fill="#db7835"/><g><path d="m400.389 374.778c11.6 0 21 9.4 21 21s-9.4 21-21 21h-44-29-93-29-109c-11.6 0-21-9.4-21-21 0-5.8 2.35-11.05 6.15-14.85s9.05-6.15 14.85-6.15h100.54 101.46 29z" fill="#f5ab71"/></g><path d="m181.561 395.778h-64c-5.8 0-11.05-2.35-14.85-6.15s-6.15-9.05-6.15-14.85h-.172c-5.8 0-11.05 2.35-14.85 6.15s-6.15 9.05-6.15 14.85c0 11.6 9.4 21 21 21h109 29 93 29 44c11.6 0 21-9.4 21-21h-43.828z" fill="#ef9456"/><g><g id="XMLID_172_"><g><path d="m400.389 332.778c11.6 0 21 9.4 21 21s-9.4 21-21 21h-44-29-29-29-26.54c-4.67 0-8.46 3.79-8.46 8.46v39.04c0 8.24-6.87 14.88-15.2 14.48-7.8-.36-13.8-7.08-13.8-14.89v-38.63c0-4.67-3.79-8.46-8.46-8.46h-100.54c-11.6 0-21-9.4-21-21s9.4-21 21-21h64 29 80 29 29 29z" fill="#5e2102"/></g></g></g><circle cx="323.399" cy="184.46" fill="#fe185e" r="27.75"/><path d="m347.345 195.019c-15.33 0-27.75-12.42-27.75-27.75 0-3.716.736-7.259 2.061-10.498-14.517.9-26.007 12.955-26.007 27.69 0 15.33 12.42 27.75 27.75 27.75 11.614 0 21.552-7.131 25.69-17.252-.577.035-1.157.06-1.744.06z" fill="#e01458"/><g><path d="m317.339 1.608c4.51.49 7.77 4.55 7.27 9.06l-20.09 183.46-6.547 58.33-30.947.993 4.724-35.753 4.88-44.48v-.01l18.16-165.8c.5-4.52 4.55-7.77 9.07-7.28z" fill="#f5ab71"/><path d="m288.221 217.698 4.88-44.48v-.01l18.16-165.8c.287-2.591 1.743-4.761 3.783-6.052l-11.185-1.228c-4.52-.49-8.57 2.76-9.07 7.28l-18.16 165.8v.01l-4.88 44.48-4.724 35.753 16.542-.531z" fill="#ef9456"/><path d="m280.159 140.948-3.53 32.26v.01l-.06.54 23.7-5.58 7.298-1.884.662-6.026 2.91-26.6z" fill="#904111"/><path d="m276.629 173.208v.01l-4.88 44.48c-1.18-11.8-9.76-21.42-21.03-24.16l-44.07-180.14c-1.08-4.41 1.62-8.86 6.03-9.94l13.17-3.22c4.41-1.08 8.86 1.62 9.94 6.03z" fill="#f5ab71"/><path d="m265.435 193.538-44.07-180.14c-1.08-4.41 1.62-8.86 6.03-9.94l5.815-1.422c-1.948-1.699-4.66-2.46-7.36-1.798l-13.17 3.22c-4.41 1.08-7.11 5.53-6.03 9.94l44.07 180.14c11.27 2.74 19.85 12.36 21.03 24.16l2.242-20.435c-2.59-1.69-5.467-2.974-8.557-3.725z" fill="#ef9456"/></g><g fill="#904111"><path d="m275.549 168.778-31.66-3.18 6.83 27.9 6.785 25.655 14.245-1.535 4.82-43.9.06-.54v-.01z"/><path d="m261.299 110.498 6.41 26.23-31.66-3.18-6.41-26.23z"/><path d="m247.039 52.218 6.42 26.23-31.67-3.19-6.41-26.22z"/><path d="m317.339 1.568c4.51.49 7.77 4.55 7.27 9.06l-4 36.52-30.97 7.28 5.15-47.06c.5-4.52 4.55-7.77 9.07-7.28z"/><path d="m317.669 73.988-3.59 32.8-30.98 7.29 3.6-32.81z"/></g><g><path d="m415.239 296.928c3.8 3.8 6.15 9.05 6.15 14.85 0 11.6-9.4 21-21 21h-44-196-64c-5.8 0-11.05-2.35-14.85-6.15s-6.15-9.05-6.15-14.85c0-11.6 9.4-21 21-21h55.29 214.13 34.58c5.8 0 11.05 2.35 14.85 6.15z" fill="#f5ab71"/></g><path d="m377.561 313.994h-196-64c-5.8 0-11.05-2.35-14.85-6.15s-6.15-9.05-6.15-14.85c0-.749.042-1.488.119-2.216h-.29c-11.6 0-21 9.4-21 21 0 5.8 2.35 11.05 6.15 14.85s9.05 6.15 14.85 6.15h64 196 44c10.851 0 19.774-8.227 20.881-18.784z" fill="#ef9456"/><path d="m377.561 348.278h-196-64c-5.8 0-11.05-2.35-14.85-6.15-2.551-2.551-4.426-5.765-5.398-9.35h-.924c-11.6 0-21 9.4-21 21s9.4 21 21 21h304c11.6 0 21-9.4 21-21 0-1.906-.276-3.744-.752-5.5z" fill="#4f1901"/><g id="XMLID_175_"><g><path d="m467.389 465.598v7.7c0 12.97-10.51 23.48-23.48 23.48h-391.04c-12.97 0-23.48-10.51-23.48-23.48v-7.7c0-3.76 3.06-6.82 6.82-6.82h424.36c3.76 0 6.82 3.06 6.82 6.82z" fill="#89bfcc"/></g></g><path d="m81.109 475.775c-10.72 0-19.753-7.183-22.567-16.997h-22.333c-3.76 0-6.82 3.06-6.82 6.82v7.7c0 12.97 10.51 23.48 23.48 23.48h391.04c12.133 0 22.112-9.198 23.349-21.003z" fill="#7bb5bf"/><g id="XMLID_174_"><g><path d="m415.239 254.928c3.8 3.8 6.15 9.05 6.15 14.85 0 11.6-9.4 21-21 21h-34.58c-5.2 0-9.42 4.22-9.42 9.42v123.08c0 8.24-6.87 14.88-15.2 14.48-7.8-.36-13.8-7.08-13.8-14.89v-106.59c0-4-1.62-7.63-4.25-10.25-2.62-2.63-6.25-4.25-10.25-4.25-8.01 0-14.5 6.49-14.5 14.5v65c0 8.24-6.87 14.88-15.2 14.48-7.8-.36-13.8-7.08-13.8-14.89v-81.38c0-4.81-3.9-8.71-8.71-8.71h-62.58c-4.81 0-8.71 3.9-8.71 8.71v39.79c0 8.24-6.87 14.88-15.2 14.48-7.8-.36-13.8-7.08-13.8-14.89v-39.38c0-4.81-3.9-8.71-8.71-8.71h-55.29c-5.8 0-11.05-2.35-14.85-6.15s-6.15-9.05-6.15-14.85c0-11.6 9.4-21 21-21h304c5.8 0 11.05 2.35 14.85 6.15z" fill="#904111"/></g></g><g id="XMLID_16_"><g><path d="m415.239 254.928c3.8 3.8 6.15 9.05 6.15 14.85 0 11.6-9.4 21-21 21h-34.58c-5.2 0-9.42 4.22-9.42 9.42v123.08c0 8.24-6.87 14.88-15.2 14.48-7.8-.36-13.8-7.08-13.8-14.89v-106.59c0-4-1.62-7.63-4.25-10.25-2.62-2.63-6.25-4.25-10.25-4.25-8.01 0-14.5 6.49-14.5 14.5v65c0 8.24-6.87 14.88-15.2 14.48-7.8-.36-13.8-7.08-13.8-14.89v-81.38c0-4.81-3.9-8.71-8.71-8.71h-62.58c-4.81 0-8.71 3.9-8.71 8.71v39.79c0 8.24-6.87 14.88-15.2 14.48-7.8-.36-13.8-7.08-13.8-14.89v-39.38c0-4.81-3.9-8.71-8.71-8.71h-55.29c-5.8 0-11.05-2.35-14.85-6.15s-6.15-9.05-6.15-14.85c0-11.6 9.4-21 21-21h304c5.8 0 11.05 2.35 14.85 6.15z" fill="#904111"/></g></g><path d="m377.561 271.994h-260c-5.8 0-11.05-2.35-14.85-6.15s-6.15-9.05-6.15-14.85c0-.749.042-1.488.119-2.216h-.29c-11.6 0-21 9.4-21 21 0 5.8 2.35 11.05 6.15 14.85s9.05 6.15 14.85 6.15h304c10.851 0 19.774-8.227 20.881-18.784z" fill="#84360b"/><g><path d="m224.709 421.868v-38.63c0-4.67-3.79-8.46-8.46-8.46h-19.32c4.67 0 8.46 3.79 8.46 8.46v38.63c0 7.81 6 14.53 13.8 14.89 4.017.193 7.686-1.262 10.417-3.734-3.018-2.764-4.897-6.788-4.897-11.156z" fill="#4f1901"/></g><g fill="#84360b"><path d="m179.709 338.868v-39.38c0-4.81-3.9-8.71-8.71-8.71h-19.32c4.81 0 8.71 3.9 8.71 8.71v39.38c0 7.81 6 14.53 13.8 14.89 4.017.193 7.686-1.262 10.417-3.734-3.018-2.764-4.897-6.788-4.897-11.156z"/><path d="m346.709 422.868v-106.59c0-4-1.62-7.63-4.25-10.25-2.62-2.63-6.25-4.25-10.25-4.25-3.718 0-7.097 1.41-9.663 3.709.199.179.404.351.593.541 2.63 2.62 4.25 6.25 4.25 10.25v106.59c0 7.81 6 14.53 13.8 14.89 4.017.193 7.686-1.262 10.417-3.734-3.018-2.764-4.897-6.788-4.897-11.156z"/><path d="m288.709 380.868v-81.38c0-4.81-3.9-8.71-8.71-8.71h-19.32c4.81 0 8.71 3.9 8.71 8.71v81.38c0 7.81 6 14.53 13.8 14.89 4.017.193 7.686-1.262 10.417-3.734-3.018-2.764-4.897-6.788-4.897-11.156z"/></g><g id="XMLID_176_"><g><circle cx="369.344" cy="221.458" fill="#fe185e" r="27.75"/><circle cx="313.344" cy="221.458" fill="#16edcf" r="27.75"/><path d="m244.344 193.708c15.33 0 27.75 12.43 27.75 27.75 0 15.33-12.42 27.75-27.75 27.75s-27.75-12.42-27.75-27.75c0-10.53 5.87-19.7 14.52-24.4 3.93-2.14 8.44-3.35 13.23-3.35z" fill="#fe185e"/><path d="m216.389 145.348c15.33 0 27.75 12.42 27.75 27.75 0 10.05-5.35 18.86-13.36 23.73-4.2 2.55-9.12 4.02-14.39 4.02s-10.19-1.47-14.39-4.02c-8.01-4.87-13.36-13.68-13.36-23.73 0-15.33 12.42-27.75 27.75-27.75z" fill="#fe185e"/><path d="m201.944 197.278c8.45 4.75 14.15 13.8 14.15 24.18 0 15.33-12.42 27.75-27.75 27.75s-27.75-12.42-27.75-27.75c0-10.53 5.87-19.7 14.52-24.4 3.93-2.14 8.44-3.35 13.23-3.35 4.95 0 9.59 1.29 13.6 3.57z" fill="#16edcf"/><path d="m160.389 145.348c15.33 0 27.75 12.42 27.75 27.75 0 10.05-5.35 18.86-13.36 23.73-4.2 2.55-9.12 4.02-14.39 4.02s-10.19-1.47-14.39-4.02c-8.01-4.87-13.36-13.68-13.36-23.73 0-15.33 12.42-27.75 27.75-27.75z" fill="#16edcf"/><path d="m145.869 197.058c8.65 4.7 14.52 13.87 14.52 24.4 0 15.33-12.42 27.75-27.75 27.75s-27.75-12.42-27.75-27.75c0-15.32 12.42-27.75 27.75-27.75 4.79 0 9.3 1.21 13.23 3.35z" fill="#fe185e"/></g></g><g id="XMLID_17_"><g><path d="m393.29 232.016c-15.33 0-27.75-12.42-27.75-27.75 0-3.716.736-7.259 2.061-10.498-14.517.9-26.007 12.955-26.007 27.69 0 15.33 12.42 27.75 27.75 27.75 11.614 0 21.552-7.131 25.69-17.252-.577.036-1.158.06-1.744.06z" fill="#e01458"/><path d="m337.29 232.016c-15.33 0-27.75-12.42-27.75-27.75 0-3.716.736-7.259 2.061-10.498-14.517.9-26.007 12.955-26.007 27.69 0 15.33 12.42 27.75 27.75 27.75 11.614 0 21.552-7.131 25.69-17.252-.577.036-1.158.06-1.744.06z" fill="#05e0bb"/><path d="m268.29 232.016c-15.33 0-27.75-12.42-27.75-27.75 0-3.719.745-7.261 2.073-10.504-4.145.255-8.046 1.416-11.499 3.296-8.65 4.7-14.52 13.87-14.52 24.4 0 15.33 12.42 27.75 27.75 27.75 11.614 0 21.552-7.131 25.69-17.252-.577.036-1.158.06-1.744.06z" fill="#e01458"/><path d="m240.335 183.656c-5.27 0-10.19-1.47-14.39-4.02-8.01-4.87-13.36-13.68-13.36-23.73 0-3.716.735-7.259 2.06-10.498-14.516.9-26.006 12.946-26.006 27.69 0 10.05 5.35 18.86 13.36 23.73 4.2 2.55 9.12 4.02 14.39 4.02s10.19-1.47 14.39-4.02c5.049-3.07 9.038-7.708 11.299-13.233-.577.037-1.157.061-1.743.061z" fill="#e01458"/><path d="m212.29 232.016c-15.33 0-27.75-12.42-27.75-27.75 0-3.719.745-7.261 2.073-10.504-4.145.255-8.046 1.416-11.499 3.296-8.65 4.7-14.52 13.87-14.52 24.4 0 15.33 12.42 27.75 27.75 27.75 11.614 0 21.552-7.131 25.69-17.252-.577.036-1.158.06-1.744.06z" fill="#05e0bb"/><path d="m184.335 183.656c-5.27 0-10.19-1.47-14.39-4.02-8.01-4.87-13.36-13.68-13.36-23.73 0-3.716.735-7.259 2.06-10.498-14.516.9-26.006 12.946-26.006 27.69 0 10.05 5.35 18.86 13.36 23.73 4.2 2.55 9.12 4.02 14.39 4.02s10.19-1.47 14.39-4.02c5.049-3.07 9.038-7.708 11.299-13.233-.577.037-1.157.061-1.743.061z" fill="#05e0bb"/><path d="m156.585 232.016c-15.33 0-27.75-12.42-27.75-27.75 0-3.716.736-7.259 2.061-10.498-14.517.9-26.007 12.955-26.007 27.69 0 15.33 12.42 27.75 27.75 27.75 11.614 0 21.552-7.131 25.69-17.252-.577.036-1.157.06-1.744.06z" fill="#e01458"/></g></g></g></svg>