<?xml version="1.0" encoding="iso-8859-1"?>
<!-- Generator: Adobe Illustrator 19.0.0, SVG Export Plug-In . SVG Version: 6.00 Build 0)  -->
<svg version="1.1" id="Capa_1" xmlns="http://www.w3.org/2000/svg" xmlns:xlink="http://www.w3.org/1999/xlink" x="0px" y="0px"
	 viewBox="0 0 512 512" style="enable-background:new 0 0 512 512;" xml:space="preserve">
<g>
	<g>
		<g>
			<circle cx="120" cy="280" r="8"/>
			<circle cx="120" cy="8" r="8"/>
			<circle cx="16" cy="144" r="8"/>
			<circle cx="16" cy="216" r="8"/>
			<circle cx="224" cy="144" r="8"/>
			<circle cx="16" cy="72" r="8"/>
			<circle cx="224" cy="72" r="8"/>
			<circle cx="224" cy="216" r="8"/>
			<path d="M40,248h160c4.8,0,8-3.2,8-8V136c0-4.8-3.2-8-8-8H40c-4.8,0-8,3.2-8,8v104C32,244.8,35.2,248,40,248z M115.2,206.4
				c1.6,0.8,3.2,1.6,4.8,1.6s3.2-0.8,4.8-1.6l25-20L184,232H55.992l34.213-45.596L115.2,206.4z M162.3,176.4l29.7-23.76V216
				L162.3,176.4z M120,189.6L62.848,144h114.304L120,189.6z M77.704,176.403L48,215.991V152.64L77.704,176.403z"/>
			<path d="M69.6,69.6L80,59.2V104c0,4.8,3.2,8,8,8s8-3.2,8-8V59.2l10.4,10.4c1.6,1.6,3.2,2.4,5.6,2.4s4-0.8,5.6-2.4
				c3.2-3.2,3.2-8,0-11.2L94.969,35.769C93.661,33.416,91.187,32,88,32s-5.661,1.416-6.969,3.769L58.4,58.4c-3.2,3.2-3.2,8,0,11.2
				C61.6,72.8,66.4,72.8,69.6,69.6z"/>
			<path d="M130.4,85.6l22.631,22.631c1.308,2.353,3.782,3.769,6.969,3.769s5.661-1.416,6.969-3.769L189.6,85.6
				c3.2-3.2,3.2-8,0-11.2c-3.2-3.2-8-3.2-11.2,0L168,84.8V40c0-4.8-3.2-8-8-8s-8,3.2-8,8v44.8l-10.4-10.4c-3.2-3.2-8-3.2-11.2,0
				C127.2,77.6,127.2,82.4,130.4,85.6z"/>
			<path d="M332.8,248h46.4c42.4,0,76.8-34.4,76.8-76.8V76.8C456,34.4,421.6,0,379.2,0h-46.4C290.4,0,256,34.4,256,76.8v94.4
				C256,213.6,290.4,248,332.8,248z M272,76.8c0-33.6,27.2-60.8,60.8-60.8h46.4c33.6,0,60.8,27.2,60.8,60.8v94.4
				c0,33.6-27.2,60.8-60.8,60.8h-46.4c-33.6,0-60.8-27.2-60.8-60.8V76.8z"/>
			<path d="M328,264c0-4.8-3.2-8-8-8s-8,3.2-8,8v8c0,13.6-10.4,24-24,24h-56c-24.8,0-40,12-40,32c0,4.8,3.2,8,8,8s8-3.2,8-8
				c0-4,0-16,24-16h56c22.4,0,40-17.6,40-40V264z"/>
			<path d="M472,296h-56c-13.6,0-24-10.4-24-24v-8c0-4.8-3.2-8-8-8s-8,3.2-8,8v8c0,22.4,17.6,40,40,40h56c13.6,0,24,10.4,24,24v168
				c0,4.8,3.2,8,8,8s8-3.2,8-8V336C512,313.6,494.4,296,472,296z"/>
			<path d="M144,399.2c-17.6,0-32,14.4-32,32c0,17.6,14.4,32,32,32c17.6,0,32-14.4,32-32C176,413.6,161.6,399.2,144,399.2z
				 M144,447.2c-8.8,0-16-7.2-16-16s7.2-16,16-16s16,7.2,16,16S152.8,447.2,144,447.2z"/>
			<circle cx="311.2" cy="116.8" r="11.2"/>
			<circle cx="400.8" cy="116.8" r="11.2"/>
			<path d="M383.2,181.6l-6.4,6.4c-4,4-9.6,6.4-15.2,6.4h-20c-5.6,0-11.2-2.4-15.2-6.4l-6.4-6.4c-3.2-3.2-8-3.2-11.2,0
				c-3.2,3.2-3.2,8,0,11.2l6.4,6.4c7.2,7.2,16.8,11.2,27.2,11.2h20c9.6,0,20-4,25.6-11.2l6.4-6.4c3.2-3.2,3.2-8,0-11.2
				C391.2,178.4,386.4,178.4,383.2,181.6z"/>
			<path d="M348.8,78.4L368,64v8c0,4.8,3.2,8,8,8h48c4.8,0,8-3.2,8-8s-3.2-8-8-8h-40V48c0-3.2-1.6-5.6-4.8-7.2
				c-2.4-1.6-5.6-0.8-8,0.8L341.6,64H288c-4.8,0-8,3.2-8,8s3.2,8,8,8h56C345.6,80,347.2,79.2,348.8,78.4z"/>
			<path d="M456,360c-4.8,0-8,3.2-8,8v88H328c-2.4,0-4,0.8-5.6,2.4l-16,16c-3.2,3.2-3.2,8,0,11.2c1.6,1.6,3.2,2.4,5.6,2.4
				c2.4,0,4-0.8,5.6-2.4l13.6-13.6H456c4.8,0,8-3.2,8-8v-96C464,363.2,460.8,360,456,360z"/>
			<path d="M368,440c4.8,0,8-3.2,8-8v-72c4.8,0,8-3.2,8-8v-40c0-4.8-3.2-8-8-8h-48c-4.8,0-8,3.2-8,8v40c0,4.8,3.2,8,8,8v72
				c0,4.8,3.2,8,8,8s8-3.2,8-8v-72h16v72C360,436.8,363.2,440,368,440z M336,320h32v24h-32V320z"/>
			<path d="M400,496H288V360c0-4.8-3.2-8-8-8H8c-4.8,0-8,3.2-8,8v144c0,4.8,3.2,8,8,8h272h120c4.8,0,8-3.2,8-8S404.8,496,400,496z
				 M16,368h256v128H16V368z"/>
		</g>
	</g>
</g>
<g>
</g>
<g>
</g>
<g>
</g>
<g>
</g>
<g>
</g>
<g>
</g>
<g>
</g>
<g>
</g>
<g>
</g>
<g>
</g>
<g>
</g>
<g>
</g>
<g>
</g>
<g>
</g>
<g>
</g>
</svg>
