<?xml version="1.0" encoding="iso-8859-1"?>
<!-- Generator: Adobe Illustrator 16.0.0, SVG Export Plug-In . SVG Version: 6.00 Build 0)  -->
<!DOCTYPE svg PUBLIC "-//W3C//DTD SVG 1.1//EN" "http://www.w3.org/Graphics/SVG/1.1/DTD/svg11.dtd">
<svg version="1.1" id="Capa_1" xmlns="http://www.w3.org/2000/svg" xmlns:xlink="http://www.w3.org/1999/xlink" x="0px" y="0px"
	 width="478.661px" height="478.661px" viewBox="0 0 478.661 478.661" style="enable-background:new 0 0 478.661 478.661;"
	 xml:space="preserve">
<g>
	<g>
		<path d="M379.225,24.918H258.076c-48.974,0-89.788,35.589-97.949,82.262c-8.298,2.561-17.325,6.356-26.354,11.98
			c-13.644,8.5-20.021,20.582-20.677,39.174c-0.001,0.056-0.002,0.111-0.002,0.169l0.047,0.001l-0.03,31.192l-0.01,0.003
			c-0.22,0.064-0.436,0.145-0.646,0.238c-3.234,1.455-4.928,0.799-5.33,7.595c-0.458,7.741,0.887,28.19,9.237,33.292
			c1.251,1.283,2.076,4.788,2.57,8.688c0.924,7.297,1.972,15.567,6.088,20.981c9.372,12.327,6.911,31.403,6.701,32.886
			c-0.032,0.021-0.078,0.049-0.138,0.077c-5.775,2.593-7.292,7.644-8.4,11.336l-0.569,1.833c-1.495,4.816-2.907,9.371-4.855,13.694
			c-0.262,0.376-1.391,1.27-2.854,1.821l-4.267,1.637c-26.976,10.342-54.87,21.033-80.775,35.354
			C5.376,372.666,0.227,445.973,0.02,448.3c-0.125,1.397,0.344,2.783,1.291,3.818c0.948,1.035,2.286,1.625,3.689,1.625h178.673
			h178.672c1.403,0,2.742-0.59,3.689-1.625s1.416-2.421,1.291-3.818c-0.207-2.327-5.356-75.634-29.843-89.169
			c-25.905-14.32-53.8-25.013-80.775-35.354l-4.268-1.637c-1.463-0.553-2.592-1.445-2.854-1.821
			c-1.948-4.323-3.36-8.878-4.856-13.694l-0.567-1.833c-1.108-3.692-2.625-8.743-8.399-11.336c-0.061-0.028-0.106-0.056-0.138-0.077
			c-0.209-1.48-2.67-20.559,6.701-32.886c4.115-5.414,5.164-13.687,6.088-20.981c0.494-3.898,1.317-7.404,2.569-8.688
			c2.282-1.394,4.038-3.938,5.38-7.052c0.569,0.01,1.139,0.021,1.71,0.021h33.322v38.232c0,8.146,4.862,15.424,12.394,18.543
			c2.446,1.012,5.028,1.525,7.672,1.525c5.362,0,10.402-2.09,14.163-5.851l52.815-52.451h0.784c54.83,0,99.438-44.607,99.438-99.438
			C478.662,69.525,434.055,24.918,379.225,24.918z M379.225,199.911h-10.628l-53.317,52.948v-52.948h-54.981
			c-0.008-0.881-0.035-1.683-0.075-2.379c-0.403-6.796-2.096-6.14-5.33-7.595c-0.209-0.094-0.425-0.174-0.646-0.238l-0.01-0.003
			l0.01-31.189c-0.02-15.871-3.871-26.547-11.78-32.636c-3.5-2.695-7.519-5.218-11.405-7.658c-5.379-3.376-10.94-6.868-12.956-9.599
			c-4.398-5.964-18.997-6.608-25.069-6.608c-1.86,0-4.31,0.066-7.222,0.283c9.464-30.929,38.273-53.489,72.26-53.489h121.148
			c41.662,0,75.557,33.896,75.557,75.556C454.781,166.018,420.887,199.911,379.225,199.911z"/>
		<circle cx="270.804" cy="125.247" r="14.885"/>
		<circle cx="318.65" cy="125.247" r="14.885"/>
		<circle cx="366.496" cy="125.247" r="14.885"/>
	</g>
</g>
</svg>
